{
    "asset": {
        "generator": "COLLADA2GLTF",
        "version": "2.0"
    },
    "scenes": [
        {
            "nodes": [
                0
            ]
        }
    ],
    "scene": 0,
    "nodes": [
        {
            "children": [
                6,
                5,
                1
            ],
            "matrix": [
                1.0,
                0.0,
                0.0,
                0.0,
                0.0,
                0.0,
                -1.0,
                0.0,
                0.0,
                1.0,
                0.0,
                0.0,
                0.0,
                0.0,
                0.0,
                1.0
            ],
            "name": "Z_UP"
        },
        {
            "children": [
                2
            ],
            "translation": [
                -5.066390258434694e-7,
                -1.1920899822825962e-7,
                0.009999999776482582
            ],
            "rotation": [
                -0.0,
                -0.0,
                -0.0,
                -1.0
            ]
        },
        {
            "children": [
                3
            ],
            "rotation": [
                -0.0,
                -0.0,
                -0.0,
                -1.0
            ]
        },
        {
            "children": [
                4
            ],
            "rotation": [
                -0.0,
                -0.0,
                -0.0,
                -1.0
            ]
        },
        {
            "mesh": 0,
            "rotation": [
                -0.0,
                -0.0,
                -0.0,
                -1.0
            ],
            "name": "Cube"
        },
        {
            "matrix": [
                0.6859207153320313,
                0.727676272392273,
                0.0,
                0.0,
                -0.3240133821964264,
                0.305420845746994,
                0.8953956961631775,
                0.0,
                0.6515582203865051,
                -0.6141704320907593,
                0.4452713429927826,
                0.0,
                7.4811320304870609,
                -6.507639884948731,
                5.34366512298584,
                1.0
            ],
            "camera": 0,
            "name": "Camera"
        },
        {
            "children": [
                7
            ],
            "translation": [
                2.980229965032777e-7,
                -2.38419005427204e-7,
                0.009999999776482582
            ],
            "rotation": [
                -0.0,
                -0.0,
                -0.0,
                -1.0
            ]
        },
        {
            "children": [
                8
            ],
            "rotation": [
                -0.0,
                -0.0,
                -0.0,
                -1.0
            ]
        },
        {
            "children": [
                9
            ],
            "rotation": [
                -0.0,
                -0.0,
                -0.0,
                -1.0
            ]
        },
        {
            "mesh": 1,
            "rotation": [
                -0.0,
                -0.0,
                -0.0,
                -1.0
            ],
            "name": "Cube_001"
        }
    ],
    "cameras": [
        {
            "perspective": {
                "yfov": 0.4823747575283051,
                "zfar": 100.0,
                "znear": 0.10000000149011612
            },
            "type": "perspective",
            "name": "Camera"
        }
    ],
    "meshes": [
        {
            "primitives": [
                {
                    "attributes": {
                        "NORMAL": 1,
                        "POSITION": 2
                    },
                    "indices": 0,
                    "mode": 4,
                    "material": 0
                }
            ],
            "name": "Cube"
        },
        {
            "primitives": [
                {
                    "attributes": {
                        "NORMAL": 4,
                        "POSITION": 5
                    },
                    "indices": 3,
                    "mode": 4,
                    "material": 1
                }
            ],
            "name": "Cube.001"
        }
    ],
    "animations": [
        {
            "channels": [
                {
                    "sampler": 0,
                    "target": {
                        "node": 6,
                        "path": "translation"
                    }
                },
                {
                    "sampler": 1,
                    "target": {
                        "node": 9,
                        "path": "rotation"
                    }
                },
                {
                    "sampler": 2,
                    "target": {
                        "node": 8,
                        "path": "rotation"
                    }
                },
                {
                    "sampler": 3,
                    "target": {
                        "node": 7,
                        "path": "rotation"
                    }
                },
                {
                    "sampler": 4,
                    "target": {
                        "node": 1,
                        "path": "translation"
                    }
                },
                {
                    "sampler": 5,
                    "target": {
                        "node": 4,
                        "path": "rotation"
                    }
                },
                {
                    "sampler": 6,
                    "target": {
                        "node": 3,
                        "path": "rotation"
                    }
                },
                {
                    "sampler": 7,
                    "target": {
                        "node": 2,
                        "path": "rotation"
                    }
                }
            ],
            "samplers": [
                {
                    "input": 6,
                    "interpolation": "LINEAR",
                    "output": 7
                },
                {
                    "input": 8,
                    "interpolation": "LINEAR",
                    "output": 9
                },
                {
                    "input": 10,
                    "interpolation": "LINEAR",
                    "output": 11
                },
                {
                    "input": 12,
                    "interpolation": "LINEAR",
                    "output": 13
                },
                {
                    "input": 14,
                    "interpolation": "LINEAR",
                    "output": 15
                },
                {
                    "input": 16,
                    "interpolation": "LINEAR",
                    "output": 17
                },
                {
                    "input": 18,
                    "interpolation": "LINEAR",
                    "output": 19
                },
                {
                    "input": 20,
                    "interpolation": "LINEAR",
                    "output": 21
                }
            ]
        }
    ],
    "accessors": [
        {
            "bufferView": 0,
            "byteOffset": 0,
            "componentType": 5123,
            "count": 36,
            "max": [
                29
            ],
            "min": [
                0
            ],
            "type": "SCALAR"
        },
        {
            "bufferView": 1,
            "byteOffset": 0,
            "componentType": 5126,
            "count": 30,
            "max": [
                0.9999973177909852,
                1.0,
                1.0
            ],
            "min": [
                -0.9999994039535524,
                -0.999999701976776,
                -1.0
            ],
            "type": "VEC3"
        },
        {
            "bufferView": 1,
            "byteOffset": 360,
            "componentType": 5126,
            "count": 30,
            "max": [
                1.0,
                2.0,
                0.010099940001964568
            ],
            "min": [
                -1.0000009536743165,
                -7.152560215217818e-7,
                0.009899972938001156
            ],
            "type": "VEC3"
        },
        {
            "bufferView": 0,
            "byteOffset": 72,
            "componentType": 5123,
            "count": 36,
            "max": [
                29
            ],
            "min": [
                0
            ],
            "type": "SCALAR"
        },
        {
            "bufferView": 1,
            "byteOffset": 720,
            "componentType": 5126,
            "count": 30,
            "max": [
                0.9999973177909852,
                0.9999973177909852,
                1.0
            ],
            "min": [
                -0.9999994039535524,
                -0.9999955892562866,
                -1.0
            ],
            "type": "VEC3"
        },
        {
            "bufferView": 1,
            "byteOffset": 1080,
            "componentType": 5126,
            "count": 30,
            "max": [
                1.0000009536743165,
                2.38419005427204e-7,
                0.010099940001964568
            ],
            "min": [
                -1.0,
                -2.000000953674317,
                0.009899972938001156
            ],
            "type": "VEC3"
        },
        {
            "bufferView": 2,
            "byteOffset": 0,
            "componentType": 5126,
            "count": 3,
            "max": [
                1.6666669845581058
            ],
            "min": [
                0.04166661947965622
            ],
            "type": "SCALAR"
        },
        {
            "bufferView": 3,
            "byteOffset": 0,
            "componentType": 5126,
            "count": 3,
            "max": [
                2.980229965032777e-7,
                -1.1920899822825962e-7,
                0.009999989531934262
            ],
            "min": [
                -5.066390258434694e-7,
                -2.38419005427204e-7,
                0.009999989531934262
            ],
            "type": "VEC3"
        },
        {
            "bufferView": 2,
            "byteOffset": 12,
            "componentType": 5126,
            "count": 3,
            "max": [
                1.6666669845581058
            ],
            "min": [
                0.04166661947965622
            ],
            "type": "SCALAR"
        },
        {
            "bufferView": 4,
            "byteOffset": 0,
            "componentType": 5126,
            "count": 3,
            "max": [
                0.12186934053897858,
                -0.0,
                -0.0,
                -0.9925461411476136
            ],
            "min": [
                -0.0,
                -0.0,
                -0.0,
                -1.0
            ],
            "type": "VEC4"
        },
        {
            "bufferView": 2,
            "byteOffset": 24,
            "componentType": 5126,
            "count": 3,
            "max": [
                1.6666669845581058
            ],
            "min": [
                0.04166661947965622
            ],
            "type": "SCALAR"
        },
        {
            "bufferView": 4,
            "byteOffset": 48,
            "componentType": 5126,
            "count": 3,
            "max": [
                -0.0,
                -0.0,
                -0.0,
                -1.0
            ],
            "min": [
                -0.0,
                -0.0,
                -0.0,
                -1.0
            ],
            "type": "VEC4"
        },
        {
            "bufferView": 2,
            "byteOffset": 36,
            "componentType": 5126,
            "count": 3,
            "max": [
                1.6666669845581058
            ],
            "min": [
                0.04166661947965622
            ],
            "type": "SCALAR"
        },
        {
            "bufferView": 4,
            "byteOffset": 96,
            "componentType": 5126,
            "count": 3,
            "max": [
                -0.0,
                -0.0,
                -0.0,
                -1.0
            ],
            "min": [
                -0.0,
                -0.0,
                -0.0,
                -1.0
            ],
            "type": "VEC4"
        },
        {
            "bufferView": 2,
            "byteOffset": 48,
            "componentType": 5126,
            "count": 2,
            "max": [
                1.6666669845581058
            ],
            "min": [
                1.25
            ],
            "type": "SCALAR"
        },
        {
            "bufferView": 3,
            "byteOffset": 36,
            "componentType": 5126,
            "count": 2,
            "max": [
                -5.066390258434694e-7,
                -1.1920899822825962e-7,
                0.009999989531934262
            ],
            "min": [
                -5.066390258434694e-7,
                -1.1920899822825962e-7,
                0.009999989531934262
            ],
            "type": "VEC3"
        },
        {
            "bufferView": 2,
            "byteOffset": 56,
            "componentType": 5126,
            "count": 3,
            "max": [
                1.6666669845581058
            ],
            "min": [
                0.04166661947965622
            ],
            "type": "SCALAR"
        },
        {
            "bufferView": 4,
            "byteOffset": 144,
            "componentType": 5126,
            "count": 3,
            "max": [
                -0.0,
                -0.0,
                -0.0,
                -0.9925461411476136
            ],
            "min": [
                -0.12186934053897858,
                -0.0,
                -0.0,
                -1.0
            ],
            "type": "VEC4"
        },
        {
            "bufferView": 2,
            "byteOffset": 68,
            "componentType": 5126,
            "count": 3,
            "max": [
                1.6666669845581058
            ],
            "min": [
                0.04166661947965622
            ],
            "type": "SCALAR"
        },
        {
            "bufferView": 4,
            "byteOffset": 192,
            "componentType": 5126,
            "count": 3,
            "max": [
                -0.0,
                -0.0,
                -0.0,
                -1.0
            ],
            "min": [
                -0.0,
                -0.0,
                -0.0,
                -1.0
            ],
            "type": "VEC4"
        },
        {
            "bufferView": 2,
            "byteOffset": 80,
            "componentType": 5126,
            "count": 3,
            "max": [
                1.6666669845581058
            ],
            "min": [
                0.04166661947965622
            ],
            "type": "SCALAR"
        },
        {
            "bufferView": 4,
            "byteOffset": 240,
            "componentType": 5126,
            "count": 3,
            "max": [
                -0.0,
                -0.0,
                -0.0,
                -1.0
            ],
            "min": [
                -0.0,
                -0.0,
                -0.0,
                -1.0
            ],
            "type": "VEC4"
        }
    ],
    "materials": [
        {
            "pbrMetallicRoughness": {
                "baseColorFactor": [
                    0.6399999856948853,
                    0.6399999856948853,
                    0.6399999856948853,
                    1.0
                ],
                "metallicFactor": 0.0
            },
            "emissiveFactor": [
                0.0,
                0.0,
                0.0
            ],
            "name": "Material-effect"
        },
        {
            "pbrMetallicRoughness": {
                "baseColorFactor": [
                    0.6399999856948853,
                    0.6399999856948853,
                    0.6399999856948853,
                    1.0
                ],
                "metallicFactor": 0.0
            },
            "emissiveFactor": [
                0.0,
                0.0,
                0.0
            ],
            "name": "Material_001-effect"
        }
    ],
    "bufferViews": [
        {
            "buffer": 0,
            "byteOffset": 1880,
            "byteLength": 144,
            "target": 34963
        },
        {
            "buffer": 0,
            "byteOffset": 348,
            "byteLength": 1440,
            "byteStride": 12,
            "target": 34962
        },
        {
            "buffer": 0,
            "byteOffset": 1788,
            "byteLength": 92
        },
        {
            "buffer": 0,
            "byteOffset": 288,
            "byteLength": 60
        },
        {
            "buffer": 0,
            "byteOffset": 0,
            "byteLength": 288
        }
    ],
    "buffers": [
        {
            "byteLength": 2024,
            "uri": "data:application/octet-stream;base64,"
        }
    ]
}
