{
    "asset": {
        "generator": "COLLADA2GLTF",
        "version": "2.0"
    },
    "scenes": [
        {
            "nodes": [
                0
            ]
        }
    ],
    "scene": 0,
    "nodes": [
        {
            "children": [
                5,
                1
            ],
            "matrix": [
                1.0,
                0.0,
                0.0,
                0.0,
                0.0,
                0.0,
                -1.0,
                0.0,
                0.0,
                1.0,
                0.0,
                0.0,
                0.0,
                0.0,
                0.0,
                1.0
            ],
            "name": "Z_UP"
        },
        {
            "children": [
                2
            ]
        },
        {
            "children": [
                3
            ],
            "rotation": [
                -0.0,
                -0.0,
                -0.0,
                -1.0
            ]
        },
        {
            "children": [
                4
            ],
            "rotation": [
                -0.0,
                -0.0,
                -0.0,
                -1.0
            ]
        },
        {
            "mesh": 0,
            "rotation": [
                -0.0,
                -0.0,
                -0.0,
                -1.0
            ],
            "name": "Cube"
        },
        {
            "matrix": [
                0.6859207153320313,
                0.727676272392273,
                0.0,
                0.0,
                -0.3240133821964264,
                0.305420845746994,
                0.8953956961631775,
                0.0,
                0.6515582203865051,
                -0.6141704320907593,
                0.4452713429927826,
                0.0,
                7.4811320304870609,
                -6.507639884948731,
                5.34366512298584,
                1.0
            ],
            "camera": 0,
            "name": "Camera"
        }
    ],
    "cameras": [
        {
            "perspective": {
                "yfov": 0.4823747575283051,
                "zfar": 100.0,
                "znear": 0.10000000149011612
            },
            "type": "perspective",
            "name": "Camera"
        }
    ],
    "meshes": [
        {
            "primitives": [
                {
                    "attributes": {
                        "NORMAL": 1,
                        "POSITION": 2
                    },
                    "indices": 0,
                    "mode": 4,
                    "material": 0
                }
            ],
            "name": "Cube"
        }
    ],
    "animations": [
        {
            "channels": [
                {
                    "sampler": 0,
                    "target": {
                        "node": 4,
                        "path": "rotation"
                    }
                },
                {
                    "sampler": 1,
                    "target": {
                        "node": 3,
                        "path": "rotation"
                    }
                },
                {
                    "sampler": 2,
                    "target": {
                        "node": 2,
                        "path": "rotation"
                    }
                }
            ],
            "samplers": [
                {
                    "input": 3,
                    "interpolation": "LINEAR",
                    "output": 4
                },
                {
                    "input": 5,
                    "interpolation": "LINEAR",
                    "output": 6
                },
                {
                    "input": 7,
                    "interpolation": "LINEAR",
                    "output": 8
                }
            ]
        }
    ],
    "accessors": [
        {
            "bufferView": 0,
            "byteOffset": 0,
            "componentType": 5123,
            "count": 36,
            "max": [
                27
            ],
            "min": [
                0
            ],
            "type": "SCALAR"
        },
        {
            "bufferView": 1,
            "byteOffset": 0,
            "componentType": 5126,
            "count": 28,
            "max": [
                1.0,
                1.0,
                1.0
            ],
            "min": [
                -1.0,
                -1.0,
                -1.0
            ],
            "type": "VEC3"
        },
        {
            "bufferView": 1,
            "byteOffset": 336,
            "componentType": 5126,
            "count": 28,
            "max": [
                1.0,
                1.0,
                1.0
            ],
            "min": [
                -1.0,
                -1.0000009536743165,
                -1.0
            ],
            "type": "VEC3"
        },
        {
            "bufferView": 2,
            "byteOffset": 0,
            "componentType": 5126,
            "count": 3,
            "max": [
                1.6666669845581058
            ],
            "min": [
                0.04166661947965622
            ],
            "type": "SCALAR"
        },
        {
            "bufferView": 3,
            "byteOffset": 0,
            "componentType": 5126,
            "count": 3,
            "max": [
                -0.0,
                -0.0,
                -0.0,
                -0.8156330585479736
            ],
            "min": [
                -0.5785695314407349,
                -0.0,
                -0.0,
                -1.0
            ],
            "type": "VEC4"
        },
        {
            "bufferView": 2,
            "byteOffset": 12,
            "componentType": 5126,
            "count": 3,
            "max": [
                1.6666669845581058
            ],
            "min": [
                0.04166661947965622
            ],
            "type": "SCALAR"
        },
        {
            "bufferView": 3,
            "byteOffset": 48,
            "componentType": 5126,
            "count": 3,
            "max": [
                0.6108363270759583,
                -0.0,
                -0.0,
                -0.7917568683624268
            ],
            "min": [
                -0.0,
                -0.0,
                -0.0,
                -1.0
            ],
            "type": "VEC4"
        },
        {
            "bufferView": 2,
            "byteOffset": 24,
            "componentType": 5126,
            "count": 3,
            "max": [
                1.6666669845581058
            ],
            "min": [
                0.04166661947965622
            ],
            "type": "SCALAR"
        },
        {
            "bufferView": 3,
            "byteOffset": 96,
            "componentType": 5126,
            "count": 3,
            "max": [
                -0.0,
                -0.0,
                -0.0,
                -0.866461455821991
            ],
            "min": [
                -0.49924397468566897,
                -0.0,
                -0.0,
                -1.0
            ],
            "type": "VEC4"
        }
    ],
    "materials": [
        {
            "pbrMetallicRoughness": {
                "baseColorFactor": [
                    0.6399999856948853,
                    0.6399999856948853,
                    0.6399999856948853,
                    1.0
                ],
                "metallicFactor": 0.0
            },
            "emissiveFactor": [
                0.0,
                0.0,
                0.0
            ],
            "name": "Material-effect"
        }
    ],
    "bufferViews": [
        {
            "buffer": 0,
            "byteOffset": 852,
            "byteLength": 72,
            "target": 34963
        },
        {
            "buffer": 0,
            "byteOffset": 144,
            "byteLength": 672,
            "byteStride": 12,
            "target": 34962
        },
        {
            "buffer": 0,
            "byteOffset": 816,
            "byteLength": 36
        },
        {
            "buffer": 0,
            "byteOffset": 0,
            "byteLength": 144
        }
    ],
    "buffers": [
        {
            "byteLength": 924,
            "uri": "data:application/octet-stream;base64,"
        }
    ]
}
