{"accessors":{"accessor_16":{"bufferView":"bufferView_2","byteOffset":0,"byteStride":0,"componentType":5123,"count":36,"max":[17],"min":[0],"type":"SCALAR"},"accessor_18":{"bufferView":"bufferView_0","byteOffset":0,"byteStride":0,"componentType":5126,"count":36,"max":[1,2.3841900542720396e-7,0.01009989995509386],"min":[-1,-2,0.009899970144033432],"type":"VEC3"},"accessor_20":{"bufferView":"bufferView_0","byteOffset":432,"byteStride":0,"componentType":5126,"count":36,"max":[0.9999970197677612,0.9999970197677612,1],"min":[-0.9999989867210388,-0.9999960064888,-1],"type":"VEC3"},"accessor_38":{"bufferView":"bufferView_0","byteOffset":864,"byteStride":0,"componentType":5126,"count":36,"max":[1,2,0.01009989995509386],"min":[-1,-7.152560215217818e-7,0.009899970144033432],"type":"VEC3"},"accessor_40":{"bufferView":"bufferView_0","byteOffset":1296,"byteStride":0,"componentType":5126,"count":36,"max":[0.9999970197677612,1,1],"min":[-0.9999989867210388,-1,-1],"type":"VEC3"},"animAccessor_0":{"bufferView":"bufferView_1","byteOffset":0,"byteStride":0,"componentType":5126,"count":3,"max":[2.980229965032777e-7,-1.1920899822825959e-7,0.009999989531934261],"min":[-5.066390258434694e-7,-2.3841900542720396e-7,0.009999989531934261],"type":"VEC3"},"animAccessor_1":{"bufferView":"bufferView_1","byteOffset":36,"byteStride":0,"componentType":5126,"count":3,"max":[1.6666699647903442],"min":[0.04166660085320473],"type":"SCALAR"},"animAccessor_2":{"bufferView":"bufferView_1","byteOffset":48,"byteStride":0,"componentType":5126,"count":3,"max":[0,0,0,1],"min":[0,0,0,1],"type":"VEC4"},"animAccessor_3":{"bufferView":"bufferView_1","byteOffset":96,"byteStride":0,"componentType":5126,"count":3,"max":[0,0,0,1],"min":[-0.12186934053897858,0,0,0.9925461411476135],"type":"VEC4"},"animAccessor_4":{"bufferView":"bufferView_1","byteOffset":144,"byteStride":0,"componentType":5126,"count":2,"max":[-5.066390258434694e-7,-1.1920899822825959e-7,0.009999989531934261],"min":[-5.066390258434694e-7,-1.1920899822825959e-7,0.009999989531934261],"type":"VEC3"},"animAccessor_5":{"bufferView":"bufferView_1","byteOffset":168,"byteStride":0,"componentType":5126,"count":2,"max":[1.6666699647903442],"min":[1.25],"type":"SCALAR"},"animAccessor_6":{"bufferView":"bufferView_1","byteOffset":176,"byteStride":0,"componentType":5126,"count":3,"max":[0.12186934053897858,0,0,1],"min":[0,0,0,0.9925461411476135],"type":"VEC4"}},"animations":{"animation_0":{"channels":[{"sampler":"animation_0_translation_sampler","target":{"id":"Cube_001","path":"translation"}}],"parameters":{"TIME":"animAccessor_1","translation":"animAccessor_0"},"samplers":{"animation_0_translation_sampler":{"input":"TIME","interpolation":"LINEAR","output":"translation"}}},"animation_10":{"channels":[{"sampler":"animation_10_rotation_sampler","target":{"id":"_Cube_target_6","path":"rotation"}}],"parameters":{"TIME":"animAccessor_1","rotation":"animAccessor_2"},"samplers":{"animation_10_rotation_sampler":{"input":"TIME","interpolation":"LINEAR","output":"rotation"}}},"animation_11":{"channels":[{"sampler":"animation_11_rotation_sampler","target":{"id":"_Cube_target_7","path":"rotation"}}],"parameters":{"TIME":"animAccessor_1","rotation":"animAccessor_2"},"samplers":{"animation_11_rotation_sampler":{"input":"TIME","interpolation":"LINEAR","output":"rotation"}}},"animation_3":{"channels":[{"sampler":"animation_3_rotation_sampler","target":{"id":"_Cube_001_target_1","path":"rotation"}}],"parameters":{"TIME":"animAccessor_1","rotation":"animAccessor_3"},"samplers":{"animation_3_rotation_sampler":{"input":"TIME","interpolation":"LINEAR","output":"rotation"}}},"animation_4":{"channels":[{"sampler":"animation_4_rotation_sampler","target":{"id":"_Cube_001_target_2","path":"rotation"}}],"parameters":{"TIME":"animAccessor_1","rotation":"animAccessor_2"},"samplers":{"animation_4_rotation_sampler":{"input":"TIME","interpolation":"LINEAR","output":"rotation"}}},"animation_5":{"channels":[{"sampler":"animation_5_rotation_sampler","target":{"id":"_Cube_001_target_3","path":"rotation"}}],"parameters":{"TIME":"animAccessor_1","rotation":"animAccessor_2"},"samplers":{"animation_5_rotation_sampler":{"input":"TIME","interpolation":"LINEAR","output":"rotation"}}},"animation_6":{"channels":[{"sampler":"animation_6_translation_sampler","target":{"id":"Cube","path":"translation"}}],"parameters":{"TIME":"animAccessor_5","translation":"animAccessor_4"},"samplers":{"animation_6_translation_sampler":{"input":"TIME","interpolation":"LINEAR","output":"translation"}}},"animation_9":{"channels":[{"sampler":"animation_9_rotation_sampler","target":{"id":"_Cube_target_5","path":"rotation"}}],"parameters":{"TIME":"animAccessor_1","rotation":"animAccessor_6"},"samplers":{"animation_9_rotation_sampler":{"input":"TIME","interpolation":"LINEAR","output":"rotation"}}}},"asset":{"generator":"collada2gltf@ec3ff192cc7dd54ad5f27c08bf14e37805754a10","premultipliedAlpha":true,"profile":{"api":"WebGL","version":"1.0.2"},"version":"1.0.1"},"bufferViews":{"bufferView_0":{"buffer":"input","byteLength":1728,"byteOffset":0,"target":34962},"bufferView_1":{"buffer":"input","byteLength":224,"byteOffset":1728},"bufferView_2":{"buffer":"input","byteLength":72,"byteOffset":1952,"target":34963}},"buffers":{"input":{"type":"arraybuffer","byteLength":2024,"uri":"data:application/octet-stream;base64,"}},"cameras":{"Camera-camera":{"name":"Camera","perspective":{"aspectRatio":1.7777799367904663,"yfov":0.48237427870788735,"zfar":100,"znear":0.10000000149011612},"type":"perspective"}},"materials":{"Material-effect":{"name":"Material","technique":"technique0","values":{"ambient":[0,0,0,1],"diffuse":[0.6399999856948853,0.6399999856948853,0.6399999856948853,1],"emission":[0,0,0,1],"shininess":50,"specular":[0.5,0.5,0.5,1]}}},"meshes":{"Cube-mesh":{"name":"Cube","primitives":[{"attributes":{"NORMAL":"accessor_40","POSITION":"accessor_38"},"indices":"accessor_16","material":"Material-effect","mode":4}]},"Cube_001-mesh":{"name":"Cube.001","primitives":[{"attributes":{"NORMAL":"accessor_20","POSITION":"accessor_18"},"indices":"accessor_16","material":"Material-effect","mode":4}]}},"nodes":{"Camera":{"camera":"Camera-camera","children":[],"matrix":[0.6859212517738342,0.7276757955551147,0,0,-0.3240131735801697,0.3054210841655731,0.8953956961631775,0,0.6515577435493469,-0.6141709089279175,0.4452713429927826,0,7.4811296463012695,-6.5076398849487305,5.3436598777771,1],"name":"Camera"},"Cube":{"children":["_Cube_target_7"],"rotation":[0,0,0,1],"scale":[1,1,1],"translation":[-5.066390258434694e-7,-1.1920899822825959e-7,0.009999999776482582]},"Cube_001":{"children":["_Cube_001_target_3"],"rotation":[0,0,0,1],"scale":[1,1,1],"translation":[2.980229965032777e-7,-2.3841900542720396e-7,0.009999999776482582]},"Lamp":{"children":[],"matrix":[-0.2908594310283661,0.9551727175712585,-0.055189099162817,0,-0.7711024284362793,-0.19987930357456207,0.6045240759849548,0,0.5663937330245972,0.21838797628879547,0.7946727871894836,0,4.076250076293945,1.0054500102996826,5.903859615325928,1],"name":"Lamp"},"_Cube_001_target_1":{"children":[],"meshes":["Cube_001-mesh"],"name":"Cube_001","rotation":[0,0,0,1],"scale":[1,1,1],"translation":[0,0,0]},"_Cube_001_target_2":{"children":["_Cube_001_target_1"],"rotation":[0,0,0,1],"scale":[1,1,1],"translation":[0,0,0]},"_Cube_001_target_3":{"children":["_Cube_001_target_2"],"rotation":[0,0,0,1],"scale":[1,1,1],"translation":[0,0,0]},"_Cube_target_5":{"children":[],"meshes":["Cube-mesh"],"name":"Cube","rotation":[0,0,0,1],"scale":[1,1,1],"translation":[0,0,0]},"_Cube_target_6":{"children":["_Cube_target_5"],"rotation":[0,0,0,1],"scale":[1,1,1],"translation":[0,0,0]},"_Cube_target_7":{"children":["_Cube_target_6"],"rotation":[0,0,0,1],"scale":[1,1,1],"translation":[0,0,0]},"node_5":{"children":["Cube","Lamp","Camera","Cube_001"],"matrix":[1,0,0,0,0,0,-1,0,0,1,0,0,0,0,0,1],"name":"Y_UP_Transform"}},"programs":{"program_0":{"attributes":["a_normal","a_position"],"fragmentShader":"input0FS","vertexShader":"input0VS"}},"scene":"defaultScene","scenes":{"defaultScene":{"nodes":["node_5"]}},"shaders":{"input0FS":{"type":35632,"uri":"data:text/plain;base64,"},"input0VS":{"type":35633,"uri":"data:text/plain;base64,"}},"skins":{},"techniques":{"technique0":{"attributes":{"a_normal":"normal","a_position":"position"},"parameters":{"ambient":{"type":35666},"diffuse":{"semantic":"_3DTILESDIFFUSE","type":35666},"emission":{"type":35666},"light0Color":{"type":35665,"value":[1,1,1]},"light0ConstantAttenuation":{"type":5126,"value":1},"light0LinearAttenuation":{"type":5126,"value":0},"light0QuadraticAttenuation":{"type":5126,"value":0.001111089950427413},"light0Transform":{"node":"Lamp","semantic":"MODELVIEW","type":35676},"modelViewMatrix":{"semantic":"MODELVIEW","type":35676},"normal":{"semantic":"NORMAL","type":35665},"normalMatrix":{"semantic":"MODELVIEWINVERSETRANSPOSE","type":35675},"position":{"semantic":"POSITION","type":35665},"projectionMatrix":{"semantic":"PROJECTION","type":35676},"shininess":{"type":5126},"specular":{"type":35666}},"program":"program_0","states":{"enable":[2929,2884]},"uniforms":{"u_ambient":"ambient","u_diffuse":"diffuse","u_emission":"emission","u_light0Color":"light0Color","u_light0ConstantAttenuation":"light0ConstantAttenuation","u_light0LinearAttenuation":"light0LinearAttenuation","u_light0QuadraticAttenuation":"light0QuadraticAttenuation","u_light0Transform":"light0Transform","u_modelViewMatrix":"modelViewMatrix","u_normalMatrix":"normalMatrix","u_projectionMatrix":"projectionMatrix","u_shininess":"shininess","u_specular":"specular"}}},"images":{},"samplers":{},"textures":{},"extensionsUsed":[]}
